<svg xmlns="http://www.w3.org/2000/svg" width="96" height="96" viewBox="0 0 96 96">
<g fill="none"><path d="M0 0.00q12 0.28 24 0t24 0t24 0t24 0" stroke="#fff" stroke-opacity="0.062" stroke-width="0.37"/><path d="M0 0.80q16 -0.28 32 0t32 0t32 0" stroke="#000" stroke-opacity=".22" stroke-width=".65"/><path d="M0 2.18q12 -0.26 24 0t24 0t24 0t24 0" stroke="#fff" stroke-opacity="0.061" stroke-width="0.52"/><path d="M0 2.98q16 0.26 32 0t32 0t32 0" stroke="#000" stroke-opacity=".22" stroke-width=".65"/><path d="M0 4.36q12 0.08 24 0t24 0t24 0t24 0" stroke="#fff" stroke-opacity="0.066" stroke-width="0.45"/><path d="M0 5.16q16 -0.08 32 0t32 0t32 0" stroke="#000" stroke-opacity=".22" stroke-width=".65"/><path d="M0 6.55q12 0.01 24 0t24 0t24 0t24 0" stroke="#fff" stroke-opacity="0.051" stroke-width="0.48"/><path d="M0 7.35q16 -0.01 32 0t32 0t32 0" stroke="#000" stroke-opacity=".22" stroke-width=".65"/><path d="M0 8.73q12 0.04 24 0t24 0t24 0t24 0" stroke="#fff" stroke-opacity="0.063" stroke-width="0.49"/><path d="M0 9.53q16 -0.04 32 0t32 0t32 0" stroke="#000" stroke-opacity=".22" stroke-width=".65"/><path d="M0 10.91q12 0.26 24 0t24 0t24 0t24 0" stroke="#fff" stroke-opacity="0.056" stroke-width="0.47"/><path d="M0 11.71q16 -0.26 32 0t32 0t32 0" stroke="#000" stroke-opacity=".22" stroke-width=".65"/><path d="M0 13.09q12 0.09 24 0t24 0t24 0t24 0" stroke="#fff" stroke-opacity="0.074" stroke-width="0.37"/><path d="M0 13.89q16 -0.09 32 0t32 0t32 0" stroke="#000" stroke-opacity=".22" stroke-width=".65"/><path d="M0 15.27q12 -0.34 24 0t24 0t24 0t24 0" stroke="#fff" stroke-opacity="0.065" stroke-width="0.42"/><path d="M0 16.07q16 0.34 32 0t32 0t32 0" stroke="#000" stroke-opacity=".22" stroke-width=".65"/><path d="M0 17.45q12 0.06 24 0t24 0t24 0t24 0" stroke="#fff" stroke-opacity="0.065" stroke-width="0.56"/><path d="M0 18.25q16 -0.06 32 0t32 0t32 0" stroke="#000" stroke-opacity=".22" stroke-width=".65"/><path d="M0 19.64q12 -0.03 24 0t24 0t24 0t24 0" stroke="#fff" stroke-opacity="0.058" stroke-width="0.60"/><path d="M0 20.44q16 0.03 32 0t32 0t32 0" stroke="#000" stroke-opacity=".22" stroke-width=".65"/><path d="M0 21.82q12 0.26 24 0t24 0t24 0t24 0" stroke="#fff" stroke-opacity="0.048" stroke-width="0.44"/><path d="M0 22.62q16 -0.26 32 0t32 0t32 0" stroke="#000" stroke-opacity=".22" stroke-width=".65"/><path d="M0 24.00q12 -0.11 24 0t24 0t24 0t24 0" stroke="#fff" stroke-opacity="0.049" stroke-width="0.62"/><path d="M0 24.80q16 0.11 32 0t32 0t32 0" stroke="#000" stroke-opacity=".22" stroke-width=".65"/><path d="M0 26.18q12 0.07 24 0t24 0t24 0t24 0" stroke="#fff" stroke-opacity="0.050" stroke-width="0.42"/><path d="M0 26.98q16 -0.07 32 0t32 0t32 0" stroke="#000" stroke-opacity=".22" stroke-width=".65"/><path d="M0 28.36q12 0.21 24 0t24 0t24 0t24 0" stroke="#fff" stroke-opacity="0.047" stroke-width="0.53"/><path d="M0 29.16q16 -0.21 32 0t32 0t32 0" stroke="#000" stroke-opacity=".22" stroke-width=".65"/><path d="M0 30.55q12 -0.23 24 0t24 0t24 0t24 0" stroke="#fff" stroke-opacity="0.060" stroke-width="0.50"/><path d="M0 31.35q16 0.23 32 0t32 0t32 0" stroke="#000" stroke-opacity=".22" stroke-width=".65"/><path d="M0 32.73q12 -0.11 24 0t24 0t24 0t24 0" stroke="#fff" stroke-opacity="0.063" stroke-width="0.56"/><path d="M0 33.53q16 0.11 32 0t32 0t32 0" stroke="#000" stroke-opacity=".22" stroke-width=".65"/><path d="M0 34.91q12 -0.03 24 0t24 0t24 0t24 0" stroke="#fff" stroke-opacity="0.056" stroke-width="0.49"/><path d="M0 35.71q16 0.03 32 0t32 0t32 0" stroke="#000" stroke-opacity=".22" stroke-width=".65"/><path d="M0 37.09q12 -0.30 24 0t24 0t24 0t24 0" stroke="#fff" stroke-opacity="0.070" stroke-width="0.54"/><path d="M0 37.89q16 0.3 32 0t32 0t32 0" stroke="#000" stroke-opacity=".22" stroke-width=".65"/><path d="M0 39.27q12 0.19 24 0t24 0t24 0t24 0" stroke="#fff" stroke-opacity="0.067" stroke-width="0.44"/><path d="M0 40.07q16 -0.19 32 0t32 0t32 0" stroke="#000" stroke-opacity=".22" stroke-width=".65"/><path d="M0 41.45q12 -0.17 24 0t24 0t24 0t24 0" stroke="#fff" stroke-opacity="0.072" stroke-width="0.46"/><path d="M0 42.25q16 0.17 32 0t32 0t32 0" stroke="#000" stroke-opacity=".22" stroke-width=".65"/><path d="M0 43.64q12 0.33 24 0t24 0t24 0t24 0" stroke="#fff" stroke-opacity="0.064" stroke-width="0.43"/><path d="M0 44.44q16 -0.33 32 0t32 0t32 0" stroke="#000" stroke-opacity=".22" stroke-width=".65"/><path d="M0 45.82q12 -0.02 24 0t24 0t24 0t24 0" stroke="#fff" stroke-opacity="0.048" stroke-width="0.42"/><path d="M0 46.62q16 0.02 32 0t32 0t32 0" stroke="#000" stroke-opacity=".22" stroke-width=".65"/><path d="M0 48.00q12 -0.16 24 0t24 0t24 0t24 0" stroke="#fff" stroke-opacity="0.061" stroke-width="0.49"/><path d="M0 48.80q16 0.16 32 0t32 0t32 0" stroke="#000" stroke-opacity=".22" stroke-width=".65"/><path d="M0 50.18q12 0.23 24 0t24 0t24 0t24 0" stroke="#fff" stroke-opacity="0.052" stroke-width="0.62"/><path d="M0 50.98q16 -0.23 32 0t32 0t32 0" stroke="#000" stroke-opacity=".22" stroke-width=".65"/><path d="M0 52.36q12 0.11 24 0t24 0t24 0t24 0" stroke="#fff" stroke-opacity="0.062" stroke-width="0.50"/><path d="M0 53.16q16 -0.11 32 0t32 0t32 0" stroke="#000" stroke-opacity=".22" stroke-width=".65"/><path d="M0 54.55q12 -0.12 24 0t24 0t24 0t24 0" stroke="#fff" stroke-opacity="0.065" stroke-width="0.48"/><path d="M0 55.35q16 0.12 32 0t32 0t32 0" stroke="#000" stroke-opacity=".22" stroke-width=".65"/><path d="M0 56.73q12 0.25 24 0t24 0t24 0t24 0" stroke="#fff" stroke-opacity="0.060" stroke-width="0.46"/><path d="M0 57.53q16 -0.25 32 0t32 0t32 0" stroke="#000" stroke-opacity=".22" stroke-width=".65"/><path d="M0 58.91q12 0.12 24 0t24 0t24 0t24 0" stroke="#fff" stroke-opacity="0.045" stroke-width="0.65"/><path d="M0 59.71q16 -0.12 32 0t32 0t32 0" stroke="#000" stroke-opacity=".22" stroke-width=".65"/><path d="M0 61.09q12 0.07 24 0t24 0t24 0t24 0" stroke="#fff" stroke-opacity="0.074" stroke-width="0.60"/><path d="M0 61.89q16 -0.07 32 0t32 0t32 0" stroke="#000" stroke-opacity=".22" stroke-width=".65"/><path d="M0 63.27q12 -0.15 24 0t24 0t24 0t24 0" stroke="#fff" stroke-opacity="0.058" stroke-width="0.44"/><path d="M0 64.07q16 0.15 32 0t32 0t32 0" stroke="#000" stroke-opacity=".22" stroke-width=".65"/><path d="M0 65.45q12 0.10 24 0t24 0t24 0t24 0" stroke="#fff" stroke-opacity="0.058" stroke-width="0.47"/><path d="M0 66.25q16 -0.1 32 0t32 0t32 0" stroke="#000" stroke-opacity=".22" stroke-width=".65"/><path d="M0 67.64q12 0.35 24 0t24 0t24 0t24 0" stroke="#fff" stroke-opacity="0.060" stroke-width="0.61"/><path d="M0 68.44q16 -0.35 32 0t32 0t32 0" stroke="#000" stroke-opacity=".22" stroke-width=".65"/><path d="M0 69.82q12 0.10 24 0t24 0t24 0t24 0" stroke="#fff" stroke-opacity="0.057" stroke-width="0.52"/><path d="M0 70.62q16 -0.1 32 0t32 0t32 0" stroke="#000" stroke-opacity=".22" stroke-width=".65"/><path d="M0 72.00q12 -0.14 24 0t24 0t24 0t24 0" stroke="#fff" stroke-opacity="0.072" stroke-width="0.39"/><path d="M0 72.80q16 0.14 32 0t32 0t32 0" stroke="#000" stroke-opacity=".22" stroke-width=".65"/><path d="M0 74.18q12 0.26 24 0t24 0t24 0t24 0" stroke="#fff" stroke-opacity="0.063" stroke-width="0.45"/><path d="M0 74.98q16 -0.26 32 0t32 0t32 0" stroke="#000" stroke-opacity=".22" stroke-width=".65"/><path d="M0 76.36q12 -0.08 24 0t24 0t24 0t24 0" stroke="#fff" stroke-opacity="0.073" stroke-width="0.42"/><path d="M0 77.16q16 0.08 32 0t32 0t32 0" stroke="#000" stroke-opacity=".22" stroke-width=".65"/><path d="M0 78.55q12 -0.08 24 0t24 0t24 0t24 0" stroke="#fff" stroke-opacity="0.070" stroke-width="0.46"/><path d="M0 79.35q16 0.08 32 0t32 0t32 0" stroke="#000" stroke-opacity=".22" stroke-width=".65"/><path d="M0 80.73q12 0.34 24 0t24 0t24 0t24 0" stroke="#fff" stroke-opacity="0.068" stroke-width="0.42"/><path d="M0 81.53q16 -0.34 32 0t32 0t32 0" stroke="#000" stroke-opacity=".22" stroke-width=".65"/><path d="M0 82.91q12 -0.18 24 0t24 0t24 0t24 0" stroke="#fff" stroke-opacity="0.047" stroke-width="0.36"/><path d="M0 83.71q16 0.18 32 0t32 0t32 0" stroke="#000" stroke-opacity=".22" stroke-width=".65"/><path d="M0 85.09q12 -0.06 24 0t24 0t24 0t24 0" stroke="#fff" stroke-opacity="0.062" stroke-width="0.57"/><path d="M0 85.89q16 0.06 32 0t32 0t32 0" stroke="#000" stroke-opacity=".22" stroke-width=".65"/><path d="M0 87.27q12 0.15 24 0t24 0t24 0t24 0" stroke="#fff" stroke-opacity="0.068" stroke-width="0.57"/><path d="M0 88.07q16 -0.15 32 0t32 0t32 0" stroke="#000" stroke-opacity=".22" stroke-width=".65"/><path d="M0 89.45q12 -0.16 24 0t24 0t24 0t24 0" stroke="#fff" stroke-opacity="0.054" stroke-width="0.36"/><path d="M0 90.25q16 0.16 32 0t32 0t32 0" stroke="#000" stroke-opacity=".22" stroke-width=".65"/><path d="M0 91.64q12 -0.03 24 0t24 0t24 0t24 0" stroke="#fff" stroke-opacity="0.057" stroke-width="0.48"/><path d="M0 92.44q16 0.03 32 0t32 0t32 0" stroke="#000" stroke-opacity=".22" stroke-width=".65"/><path d="M0 93.82q12 -0.33 24 0t24 0t24 0t24 0" stroke="#fff" stroke-opacity="0.057" stroke-width="0.40"/><path d="M0 94.62q16 0.33 32 0t32 0t32 0" stroke="#000" stroke-opacity=".22" stroke-width=".65"/><path d="M0.00 0q0.37 12 0 24t0 24t0 24t0 24" stroke="#fff" stroke-opacity="0.051" stroke-width="0.61"/><path d="M0.90 0v96" stroke="#000" stroke-opacity=".16" stroke-width=".5"/><path d="M2.46 0q-0.03 12 0 24t0 24t0 24t0 24" stroke="#fff" stroke-opacity="0.052" stroke-width="0.54"/><path d="M3.36 0v96" stroke="#000" stroke-opacity=".16" stroke-width=".5"/><path d="M4.92 0q0.38 12 0 24t0 24t0 24t0 24" stroke="#fff" stroke-opacity="0.043" stroke-width="0.62"/><path d="M5.82 0v96" stroke="#000" stroke-opacity=".16" stroke-width=".5"/><path d="M7.38 0q-0.26 12 0 24t0 24t0 24t0 24" stroke="#fff" stroke-opacity="0.031" stroke-width="0.45"/><path d="M8.28 0v96" stroke="#000" stroke-opacity=".16" stroke-width=".5"/><path d="M9.85 0q-0.06 12 0 24t0 24t0 24t0 24" stroke="#fff" stroke-opacity="0.053" stroke-width="0.50"/><path d="M10.75 0v96" stroke="#000" stroke-opacity=".16" stroke-width=".5"/><path d="M12.31 0q-0.13 12 0 24t0 24t0 24t0 24" stroke="#fff" stroke-opacity="0.023" stroke-width="0.57"/><path d="M13.21 0v96" stroke="#000" stroke-opacity=".16" stroke-width=".5"/><path d="M14.77 0q-0.31 12 0 24t0 24t0 24t0 24" stroke="#fff" stroke-opacity="0.050" stroke-width="0.53"/><path d="M15.67 0v96" stroke="#000" stroke-opacity=".16" stroke-width=".5"/><path d="M17.23 0q-0.32 12 0 24t0 24t0 24t0 24" stroke="#fff" stroke-opacity="0.046" stroke-width="0.55"/><path d="M18.13 0v96" stroke="#000" stroke-opacity=".16" stroke-width=".5"/><path d="M19.69 0q-0.43 12 0 24t0 24t0 24t0 24" stroke="#fff" stroke-opacity="0.040" stroke-width="0.65"/><path d="M20.59 0v96" stroke="#000" stroke-opacity=".16" stroke-width=".5"/><path d="M22.15 0q0.11 12 0 24t0 24t0 24t0 24" stroke="#fff" stroke-opacity="0.021" stroke-width="0.47"/><path d="M23.05 0v96" stroke="#000" stroke-opacity=".16" stroke-width=".5"/><path d="M24.62 0q-0.19 12 0 24t0 24t0 24t0 24" stroke="#fff" stroke-opacity="0.046" stroke-width="0.63"/><path d="M25.52 0v96" stroke="#000" stroke-opacity=".16" stroke-width=".5"/><path d="M27.08 0q-0.34 12 0 24t0 24t0 24t0 24" stroke="#fff" stroke-opacity="0.031" stroke-width="0.64"/><path d="M27.98 0v96" stroke="#000" stroke-opacity=".16" stroke-width=".5"/><path d="M29.54 0q0.23 12 0 24t0 24t0 24t0 24" stroke="#fff" stroke-opacity="0.024" stroke-width="0.56"/><path d="M30.44 0v96" stroke="#000" stroke-opacity=".16" stroke-width=".5"/><path d="M32.00 0q-0.36 12 0 24t0 24t0 24t0 24" stroke="#fff" stroke-opacity="0.027" stroke-width="0.40"/><path d="M32.90 0v96" stroke="#000" stroke-opacity=".16" stroke-width=".5"/><path d="M34.46 0q0.22 12 0 24t0 24t0 24t0 24" stroke="#fff" stroke-opacity="0.042" stroke-width="0.45"/><path d="M35.36 0v96" stroke="#000" stroke-opacity=".16" stroke-width=".5"/><path d="M36.92 0q0.23 12 0 24t0 24t0 24t0 24" stroke="#fff" stroke-opacity="0.049" stroke-width="0.52"/><path d="M37.82 0v96" stroke="#000" stroke-opacity=".16" stroke-width=".5"/><path d="M39.38 0q-0.37 12 0 24t0 24t0 24t0 24" stroke="#fff" stroke-opacity="0.045" stroke-width="0.46"/><path d="M40.28 0v96" stroke="#000" stroke-opacity=".16" stroke-width=".5"/><path d="M41.85 0q-0.20 12 0 24t0 24t0 24t0 24" stroke="#fff" stroke-opacity="0.046" stroke-width="0.51"/><path d="M42.75 0v96" stroke="#000" stroke-opacity=".16" stroke-width=".5"/><path d="M44.31 0q0.43 12 0 24t0 24t0 24t0 24" stroke="#fff" stroke-opacity="0.032" stroke-width="0.59"/><path d="M45.21 0v96" stroke="#000" stroke-opacity=".16" stroke-width=".5"/><path d="M46.77 0q-0.31 12 0 24t0 24t0 24t0 24" stroke="#fff" stroke-opacity="0.052" stroke-width="0.51"/><path d="M47.67 0v96" stroke="#000" stroke-opacity=".16" stroke-width=".5"/><path d="M49.23 0q-0.40 12 0 24t0 24t0 24t0 24" stroke="#fff" stroke-opacity="0.033" stroke-width="0.40"/><path d="M50.13 0v96" stroke="#000" stroke-opacity=".16" stroke-width=".5"/><path d="M51.69 0q-0.22 12 0 24t0 24t0 24t0 24" stroke="#fff" stroke-opacity="0.044" stroke-width="0.46"/><path d="M52.59 0v96" stroke="#000" stroke-opacity=".16" stroke-width=".5"/><path d="M54.15 0q0.33 12 0 24t0 24t0 24t0 24" stroke="#fff" stroke-opacity="0.034" stroke-width="0.61"/><path d="M55.05 0v96" stroke="#000" stroke-opacity=".16" stroke-width=".5"/><path d="M56.62 0q0.01 12 0 24t0 24t0 24t0 24" stroke="#fff" stroke-opacity="0.053" stroke-width="0.48"/><path d="M57.52 0v96" stroke="#000" stroke-opacity=".16" stroke-width=".5"/><path d="M59.08 0q-0.26 12 0 24t0 24t0 24t0 24" stroke="#fff" stroke-opacity="0.036" stroke-width="0.57"/><path d="M59.98 0v96" stroke="#000" stroke-opacity=".16" stroke-width=".5"/><path d="M61.54 0q-0.31 12 0 24t0 24t0 24t0 24" stroke="#fff" stroke-opacity="0.021" stroke-width="0.56"/><path d="M62.44 0v96" stroke="#000" stroke-opacity=".16" stroke-width=".5"/><path d="M64.00 0q-0.31 12 0 24t0 24t0 24t0 24" stroke="#fff" stroke-opacity="0.048" stroke-width="0.57"/><path d="M64.90 0v96" stroke="#000" stroke-opacity=".16" stroke-width=".5"/><path d="M66.46 0q0.22 12 0 24t0 24t0 24t0 24" stroke="#fff" stroke-opacity="0.051" stroke-width="0.52"/><path d="M67.36 0v96" stroke="#000" stroke-opacity=".16" stroke-width=".5"/><path d="M68.92 0q0.40 12 0 24t0 24t0 24t0 24" stroke="#fff" stroke-opacity="0.026" stroke-width="0.49"/><path d="M69.82 0v96" stroke="#000" stroke-opacity=".16" stroke-width=".5"/><path d="M71.38 0q-0.03 12 0 24t0 24t0 24t0 24" stroke="#fff" stroke-opacity="0.040" stroke-width="0.44"/><path d="M72.28 0v96" stroke="#000" stroke-opacity=".16" stroke-width=".5"/><path d="M73.85 0q0.43 12 0 24t0 24t0 24t0 24" stroke="#fff" stroke-opacity="0.027" stroke-width="0.46"/><path d="M74.75 0v96" stroke="#000" stroke-opacity=".16" stroke-width=".5"/><path d="M76.31 0q-0.01 12 0 24t0 24t0 24t0 24" stroke="#fff" stroke-opacity="0.038" stroke-width="0.54"/><path d="M77.21 0v96" stroke="#000" stroke-opacity=".16" stroke-width=".5"/><path d="M78.77 0q-0.28 12 0 24t0 24t0 24t0 24" stroke="#fff" stroke-opacity="0.047" stroke-width="0.55"/><path d="M79.67 0v96" stroke="#000" stroke-opacity=".16" stroke-width=".5"/><path d="M81.23 0q0.43 12 0 24t0 24t0 24t0 24" stroke="#fff" stroke-opacity="0.046" stroke-width="0.60"/><path d="M82.13 0v96" stroke="#000" stroke-opacity=".16" stroke-width=".5"/><path d="M83.69 0q-0.06 12 0 24t0 24t0 24t0 24" stroke="#fff" stroke-opacity="0.025" stroke-width="0.55"/><path d="M84.59 0v96" stroke="#000" stroke-opacity=".16" stroke-width=".5"/><path d="M86.15 0q0.03 12 0 24t0 24t0 24t0 24" stroke="#fff" stroke-opacity="0.025" stroke-width="0.40"/><path d="M87.05 0v96" stroke="#000" stroke-opacity=".16" stroke-width=".5"/><path d="M88.62 0q0.33 12 0 24t0 24t0 24t0 24" stroke="#fff" stroke-opacity="0.038" stroke-width="0.45"/><path d="M89.52 0v96" stroke="#000" stroke-opacity=".16" stroke-width=".5"/><path d="M91.08 0q-0.27 12 0 24t0 24t0 24t0 24" stroke="#fff" stroke-opacity="0.048" stroke-width="0.47"/><path d="M91.98 0v96" stroke="#000" stroke-opacity=".16" stroke-width=".5"/><path d="M93.54 0q0.13 12 0 24t0 24t0 24t0 24" stroke="#fff" stroke-opacity="0.053" stroke-width="0.44"/><path d="M94.44 0v96" stroke="#000" stroke-opacity=".16" stroke-width=".5"/></g>
</svg>
